<?xml version="1.0" encoding="UTF-8" standalone="no"?>
<!-- Created with Inkscape (http://www.inkscape.org/) -->
<svg
   xmlns:dc="http://purl.org/dc/elements/1.1/"
   xmlns:cc="http://web.resource.org/cc/"
   xmlns:rdf="http://www.w3.org/1999/02/22-rdf-syntax-ns#"
   xmlns:svg="http://www.w3.org/2000/svg"
   xmlns="http://www.w3.org/2000/svg"
   xmlns:xlink="http://www.w3.org/1999/xlink"
   xmlns:sodipodi="http://sodipodi.sourceforge.net/DTD/sodipodi-0.dtd"
   xmlns:inkscape="http://www.inkscape.org/namespaces/inkscape"
   width="512"
   height="512"
   id="svg2"
   sodipodi:version="0.32"
   inkscape:version="0.45.1"
   version="1.0"
   sodipodi:docbase="/Users/ross/Desktop"
   sodipodi:docname="Crab.svg"
   inkscape:output_extension="org.inkscape.output.svg.inkscape"
   inkscape:export-filename="/Users/ross/Desktop/Crab16.png"
   inkscape:export-xdpi="2.8099999"
   inkscape:export-ydpi="2.8099999">
  <defs
     id="defs4" />
  <sodipodi:namedview
     id="base"
     pagecolor="#ffffff"
     bordercolor="#666666"
     borderopacity="1.0"
     gridtolerance="10000"
     guidetolerance="10"
     objecttolerance="10"
     inkscape:pageopacity="0.0"
     inkscape:pageshadow="2"
     inkscape:zoom="2.3867187"
     inkscape:cx="302.46074"
     inkscape:cy="283.25182"
     inkscape:document-units="px"
     inkscape:current-layer="layer2"
     width="512px"
     height="512px"
     inkscape:window-width="1002"
     inkscape:window-height="814"
     inkscape:window-x="356"
     inkscape:window-y="96" />
  <metadata
     id="metadata7">
    <rdf:RDF>
      <cc:Work
         rdf:about="">
        <dc:format>image/svg+xml</dc:format>
        <dc:type
           rdf:resource="http://purl.org/dc/dcmitype/StillImage" />
      </cc:Work>
    </rdf:RDF>
  </metadata>
  <g
     inkscape:groupmode="layer"
     id="layer2"
     inkscape:label="Traced"
     style="display:inline">
    <path
       style="fill:#4b5241;fill-opacity:1;fill-rule:evenodd;stroke:#000000;stroke-width:1px;stroke-linecap:butt;stroke-linejoin:miter;stroke-opacity:1"
       d="M 52.792144,198.59902 C 52.792144,198.59902 61.828565,183.56261 115.63993,189.38134 C 139.82267,191.99627 165.91817,212.00655 165.91817,212.00655 L 137.42717,222.90016 C 137.42717,222.90016 78.350246,206.14075 60.752864,206.14075 C 60.752864,206.14075 36.661211,249.29623 36.661211,249.29623 C 36.661211,249.29623 22.625205,277.36825 22.625205,277.36825 C 22.625205,277.36825 25.662848,246.36334 25.662848,246.36334 C 25.662848,246.36334 33.937807,223.73813 52.792144,198.59902 z "
       id="path2243"
       sodipodi:nodetypes="cscccscsc" />
    <path
       style="fill:#4b5241;fill-opacity:1;fill-rule:evenodd;stroke:#000000;stroke-width:1px;stroke-linecap:butt;stroke-linejoin:miter;stroke-opacity:1"
       d="M 18.435352,306.69722 C 18.435352,306.69722 35.613748,276.94926 35.613748,276.94926 C 35.613748,276.94926 46.566572,245.65244 47.764321,234.21276 C 71.743357,232.82104 134.91326,228.76596 134.91326,228.76596 C 134.91326,228.76596 134.07529,214.10147 134.07529,214.10147 C 114.12787,212.09969 84.2367,210.07521 64.104747,209.49264 C 47.845001,209.97492 42.26365,217.14561 37.708674,233.79378 C 37.708674,233.79378 22.625205,273.59739 22.625205,273.59739 C 22.625205,273.59739 18.435352,306.69722 18.435352,306.69722 z "
       id="path3214"
       sodipodi:nodetypes="ccccccccc" />
    <path
       style="fill:#4b5241;fill-opacity:1;fill-rule:evenodd;stroke:#000000;stroke-width:1px;stroke-linecap:butt;stroke-linejoin:miter;stroke-opacity:1"
       d="M 60.333879,296.64157 C 62.435356,283.16674 58.707352,270.80364 62.00982,261.44681 C 75.456776,254.07168 132.92285,241.46295 137.84615,229.18494 C 137.84615,229.18494 133.6563,218.29132 133.6563,218.29132 C 133.6563,218.29132 112.07813,219.54828 108.0982,219.54828 C 87.484025,222.44461 68.123086,236.88155 52.792144,250.55319 C 46.864626,260.97142 47.215834,285.75373 46.507365,298.31751 C 46.507365,298.31751 53.630115,346.9198 53.630115,346.9198 L 60.333879,296.64157 z "
       id="path3216"
       sodipodi:nodetypes="ccccccccc" />
    <path
       style="fill:#4b5241;fill-opacity:1;fill-rule:evenodd;stroke:#000000;stroke-width:1px;stroke-linecap:butt;stroke-linejoin:miter;stroke-opacity:1"
       d="M 83.378069,366.19313 C 83.378069,366.19313 83.378069,295.8036 83.378069,295.8036 C 83.378069,295.8036 80.864157,280.30115 80.864157,280.30115 C 107.47372,277.65773 136.60234,278.30475 139.10311,249.71522 C 139.10311,244.83369 130.12389,237.38413 127.37152,234.63176 C 112.52605,229.75192 82.023287,261.45907 69.97054,274.85434 C 69.97054,274.85434 67.875614,294.96563 67.875614,294.96563 C 67.875614,294.96563 83.378069,366.19313 83.378069,366.19313 z "
       id="path3218"
       sodipodi:nodetypes="cccccccc" />
    <path
       style="fill:#4b5241;fill-opacity:1;fill-rule:evenodd;stroke:#000000;stroke-width:1px;stroke-linecap:butt;stroke-linejoin:miter;stroke-opacity:1"
       d="M 366.61212,186.02946 C 389.66519,186.30844 436.51082,180.43472 460.04582,184.77251 C 476.72267,194.80897 492.30769,221.64321 492.30769,221.64321 C 492.30769,221.64321 505.29624,268.56956 505.29624,268.56956 C 505.29624,268.56956 480.5761,232.95581 480.5761,232.95581 C 480.5761,232.95581 476.33068,208.12316 460.46481,201.11293 C 434.70499,205.96133 408.31269,202.18396 382.11457,202.36988 C 382.11457,202.36988 366.61212,186.02946 366.61212,186.02946 z "
       id="path3220"
       sodipodi:nodetypes="cccccccc" />
    <path
       style="fill:#4b5241;fill-opacity:1;fill-rule:evenodd;stroke:#000000;stroke-width:1px;stroke-linecap:butt;stroke-linejoin:miter;stroke-opacity:1"
       d="M 397.61702,208.23568 C 425.82201,193.20399 454.15736,206.37636 477.64321,208.23568 C 494.09318,214.51547 501.10638,262.70377 501.10638,262.70377 C 501.10638,262.70377 509.06711,301.66939 509.06711,301.66939 C 509.06711,301.66939 490.21276,266.05565 490.21276,266.05565 C 490.21276,266.05565 475.54828,223.73813 475.54828,223.73813 C 450.87301,230.8003 418.5006,222.26668 397.61702,221.6432 C 397.61702,221.6432 397.61702,208.23568 397.61702,208.23568 z "
       id="path3222"
       sodipodi:nodetypes="cccccccc" />
    <path
       style="fill:#4b5241;fill-opacity:1;fill-rule:evenodd;stroke:#000000;stroke-width:1px;stroke-linecap:butt;stroke-linejoin:miter;stroke-opacity:1"
       d="M 469.68249,339.79705 C 469.68249,339.79705 479.31915,290.77578 479.31915,290.77578 C 479.31915,290.77578 476.38625,252.64812 476.38625,252.64812 C 462.98395,229.80626 438.81048,210.70732 382.11457,217.03437 C 382.11457,217.03437 381.2766,227.09002 381.2766,227.09002 C 413.8517,228.19202 438.10403,241.0618 464.65467,257.25695 C 464.65467,257.25695 464.23568,294.96563 464.23568,294.96563 C 464.23568,294.96563 469.68249,339.79705 469.68249,339.79705 z "
       id="path3224"
       sodipodi:nodetypes="cccccccc" />
    <path
       style="fill:#4b5241;fill-opacity:1;fill-rule:evenodd;stroke:#000000;stroke-width:1px;stroke-linecap:butt;stroke-linejoin:miter;stroke-opacity:1"
       d="M 440.35352,360.32733 C 440.35352,360.32733 455.018,314.23896 455.018,314.23896 C 455.018,314.23896 459.32016,285.81302 457.53191,276.53028 C 445.39267,247.96238 399.85994,233.59013 371.22095,231.27987 C 363.07077,231.27987 354.82325,229.83302 352.7856,237.98363 C 353.86018,253.72336 415.30588,259.32554 429.87889,268.98854 C 440.53594,283.13819 440.7725,310.46809 440.7725,310.46809 C 440.7725,310.46809 440.35352,360.32733 440.35352,360.32733 z "
       id="path3226"
       sodipodi:nodetypes="cccccccc" />
    <path
       style="fill:#4b5241;fill-opacity:1;fill-rule:evenodd;stroke:#000000;stroke-width:1px;stroke-linecap:butt;stroke-linejoin:miter;stroke-opacity:1"
       d="M 231.27987,162.56628 C 231.27987,162.56628 162.56628,196.92308 152.51064,209.49264 C 142.45499,222.06219 118.99182,200.27496 115.63993,212.00655 C 112.28805,223.73813 170.94599,282.39607 273.1784,281.5581 C 375.4108,280.72013 421.49918,212.00655 413.95745,200.27496 C 406.41571,188.54337 274.85434,160.05237 231.27987,162.56628 z "
       id="path2237" />
    <path
       style="fill:#4b5241;fill-opacity:1;fill-rule:evenodd;stroke:#000000;stroke-width:1px;stroke-linecap:butt;stroke-linejoin:miter;stroke-opacity:1"
       d="M 167.59411,236.30769 C 167.59411,236.30769 191.89525,256.41899 163.40426,263.96072 C 163.40426,263.96072 186.02946,272.34043 195.24714,292.45172 C 195.24714,292.45172 283.23404,334.35025 283.23404,334.35025 L 186.86743,319.26678 C 186.86743,319.26678 243.01146,373.73486 273.1784,376.24877 C 303.34534,378.76268 223.80563,393.41555 178.48773,364.51718 C 120.66776,327.64648 93.01473,295.8036 93.01473,274.01637 C 93.01473,252.22913 124.01964,212.00655 167.59411,236.30769 z "
       id="path2239"
       sodipodi:nodetypes="cssccsssc" />
    <path
       style="fill:#4b5241;fill-opacity:1;fill-rule:evenodd;stroke:#000000;stroke-width:1px;stroke-linecap:butt;stroke-linejoin:miter;stroke-opacity:1"
       d="M 377.08674,239.65957 C 387.98036,217.87234 472.61538,219.54828 464.23568,253.0671 C 455.85597,286.58592 438.25859,316.75286 389.6563,334.35025 C 341.05401,351.94763 273.1784,341.05401 273.1784,341.05401 L 366.19313,299.15548 L 276.53028,293.28969 C 276.53028,293.28969 346.50083,266.89362 362.00328,260.60884 C 378.15353,254.06144 367.0311,246.36334 377.08674,239.65957 z "
       id="path2241"
       sodipodi:nodetypes="cssccczc" />
    <path
       style="fill:#4b5241;fill-opacity:1;fill-rule:evenodd;stroke:#000000;stroke-width:1px;stroke-linecap:butt;stroke-linejoin:miter;stroke-opacity:1"
       d="M 250.97218,243.43044 L 253.90507,256.83797 L 257.67594,256.41899 L 257.25696,240.49754 L 250.97218,243.43044 z "
       id="path3256" />
    <path
       sodipodi:type="arc"
       style="fill:#ffffff;fill-opacity:1;stroke:#000000"
       id="path3230"
       sodipodi:cx="251.81015"
       sodipodi:cy="238.82161"
       sodipodi:rx="10.055647"
       sodipodi:ry="10.055647"
       d="M 261.8658 238.82161 A 10.055647 10.055647 0 1 1  241.7545,238.82161 A 10.055647 10.055647 0 1 1  261.8658 238.82161 z" />
    <path
       sodipodi:type="arc"
       style="fill:#000000;fill-opacity:1;stroke:#000000"
       id="path3234"
       sodipodi:cx="252.22913"
       sodipodi:cy="239.65958"
       sodipodi:rx="5.4468083"
       sodipodi:ry="5.4468083"
       d="M 257.67593 239.65958 A 5.4468083 5.4468083 0 1 1  246.78232,239.65958 A 5.4468083 5.4468083 0 1 1  257.67593 239.65958 z"
       transform="matrix(0.9295445,0,0,0.9295445,17.446867,16.142288)" />
    <path
       style="fill:#4b5241;fill-opacity:1;fill-rule:evenodd;stroke:#000000;stroke-width:1px;stroke-linecap:butt;stroke-linejoin:miter;stroke-opacity:1"
       d="M 307.95417,253.48609 L 311.30606,254.32406 L 314.23895,240.91653 L 309.21113,240.49754 L 307.95417,253.48609 z "
       id="path3258" />
    <g
       id="g3264">
      <path
         d="M 322.61866 238.82161 A 9.6366615 9.6366615 0 1 1  303.34533,238.82161 A 9.6366615 9.6366615 0 1 1  322.61866 238.82161 z"
         sodipodi:ry="9.6366615"
         sodipodi:rx="9.6366615"
         sodipodi:cy="238.82161"
         sodipodi:cx="312.98199"
         id="path3232"
         style="fill:#ffffff;fill-opacity:1;stroke:#000000"
         sodipodi:type="arc" />
      <path
         d="M 318.00981 238.82161 A 4.6088381 4.6088381 0 1 1  308.79213,238.82161 A 4.6088381 4.6088381 0 1 1  318.00981 238.82161 z"
         sodipodi:ry="4.6088381"
         sodipodi:rx="4.6088381"
         sodipodi:cy="238.82161"
         sodipodi:cx="313.40097"
         id="path3236"
         style="fill:#000000;fill-opacity:1;stroke:#000000"
         sodipodi:type="arc" />
    </g>
  </g>
  <g
     inkscape:label="Screenshot"
     inkscape:groupmode="layer"
     id="layer1"
     sodipodi:insensitive="true"
     style="opacity:0.90697674;display:none">
    <image
       y="122.36902"
       x="0"
       id="image2233"
       height="267.26196"
       width="512"
       sodipodi:absref="/Users/ross/Desktop/Picture 2.png"
       xlink:href="Picture 2.png" />
  </g>
</svg>
